<svg width="90" height="90" viewBox="0 0 90 90" fill="none" xmlns="http://www.w3.org/2000/svg">
<path d="M80.82 24.3C77.94 19.26 69.57 18.27 58.95 20.79C55.89 10.35 50.85 3.60001 45 3.60001C39.15 3.60001 34.11 10.35 31.05 20.79C20.43 18.18 12.06 19.26 9.18 24.3C6.3 29.34 9.54 37.08 17.1 45C9.54 52.92 6.21 60.66 9.18 65.7C11.07 68.94 15.12 70.65 20.79 70.65C22.5 70.65 24.39 70.47 26.46 70.2C27.99 69.93 29.52 69.66 31.05 69.3C34.11 79.65 39.15 86.4 45 86.4C50.85 86.4 55.89 79.65 58.95 69.21C60.57 69.57 62.1 69.93 63.54 70.11C65.61 70.47 67.5 70.56 69.21 70.56C74.88 70.56 78.93 68.85 80.82 65.61C83.7 60.57 80.46 52.83 72.9 44.91C80.46 37.08 83.79 29.34 80.82 24.3ZM64.08 23.4C65.97 23.13 67.68 22.95 69.3 22.95C73.53 22.95 76.5 24.03 77.76 26.1C79.38 28.89 77.76 33.66 73.26 39.24C72.36 40.32 71.46 41.4 70.38 42.48C67.86 40.05 64.89 37.71 61.65 35.37C61.29 31.41 60.66 27.63 59.85 24.21C61.29 23.94 62.73 23.58 64.08 23.4ZM51.75 56.7C49.5 57.96 47.25 59.22 45 60.3C42.75 59.22 40.5 58.05 38.25 56.7C36 55.44 33.84 54 31.77 52.65C31.59 50.13 31.5 47.61 31.5 45C31.5 42.39 31.59 39.87 31.77 37.35C33.84 35.91 36 34.56 38.25 33.3C40.5 32.04 42.75 30.78 45 29.7C47.25 30.78 49.5 31.95 51.75 33.3C54 34.56 56.16 36 58.23 37.35C58.41 39.87 58.5 42.39 58.5 45C58.5 47.61 58.41 50.13 58.23 52.65C56.16 54 54 55.35 51.75 56.7ZM57.78 57.24C57.42 59.85 56.97 62.37 56.43 64.8C54.09 64.08 51.66 63.18 49.23 62.19C50.67 61.47 52.11 60.66 53.55 59.85C54.99 58.95 56.34 58.14 57.78 57.24ZM40.77 62.19C38.34 63.18 35.91 64.08 33.57 64.8C33.03 62.46 32.58 59.94 32.22 57.24C33.57 58.14 35.01 58.95 36.45 59.76C37.89 60.66 39.33 61.38 40.77 62.19ZM27.99 49.95C25.92 48.33 23.94 46.71 22.14 45C23.94 43.38 25.92 41.67 27.99 40.05C27.9 41.67 27.9 43.38 27.9 45C27.9 46.62 27.9 48.33 27.99 49.95ZM32.22 32.76C32.58 30.15 33.03 27.63 33.57 25.2C35.91 25.92 38.34 26.82 40.77 27.81C39.33 28.53 37.89 29.34 36.45 30.15C35.01 31.05 33.66 31.86 32.22 32.76ZM49.23 27.81C51.66 26.82 54.09 25.92 56.43 25.2C56.97 27.54 57.42 30.06 57.78 32.76C56.43 31.86 54.99 31.05 53.55 30.24C52.11 29.34 50.67 28.62 49.23 27.81ZM62.01 40.05C64.08 41.67 66.06 43.29 67.86 45C66.06 46.62 64.08 48.33 62.01 49.95C62.1 48.33 62.1 46.62 62.1 45C62.1 43.38 62.1 41.67 62.01 40.05ZM35.82 17.64C38.43 10.98 41.76 7.20001 45 7.20001C48.24 7.20001 51.57 10.98 54.18 17.64C54.72 18.9 55.17 20.34 55.53 21.78C52.2 22.77 48.6 24.12 45 25.74C41.4 24.12 37.8 22.77 34.47 21.69C34.92 20.34 35.37 18.9 35.82 17.64ZM12.24 26.1C13.41 24.03 16.38 22.95 20.7 22.95C22.23 22.95 24.03 23.13 25.92 23.4C27.27 23.58 28.71 23.94 30.15 24.3C29.34 27.72 28.71 31.41 28.35 35.46C25.11 37.8 22.14 40.14 19.62 42.57C18.54 41.49 17.64 40.41 16.74 39.33C12.24 33.66 10.62 28.89 12.24 26.1ZM25.92 66.6C18.9 67.68 13.95 66.69 12.33 63.9C10.71 61.11 12.33 56.34 16.83 50.76C17.73 49.68 18.63 48.6 19.71 47.52C22.23 49.95 25.2 52.29 28.44 54.63C28.8 58.59 29.43 62.37 30.24 65.79C28.71 66.06 27.27 66.42 25.92 66.6ZM54.18 72.36C51.57 79.02 48.24 82.8 45 82.8C41.76 82.8 38.43 79.02 35.82 72.36C35.28 71.1 34.83 69.66 34.47 68.31C37.89 67.23 41.4 65.88 45 64.26C48.6 65.88 52.11 67.23 55.53 68.31C55.08 69.66 54.63 71.1 54.18 72.36ZM77.76 63.9C76.14 66.69 71.19 67.68 64.17 66.6C62.82 66.42 61.38 66.06 59.94 65.7C60.75 62.28 61.38 58.59 61.74 54.54C64.98 52.2 67.95 49.86 70.47 47.43C71.55 48.51 72.45 49.59 73.35 50.67C77.76 56.34 79.38 61.11 77.76 63.9ZM54.9 40.5C54.09 37.98 51.84 36.18 49.41 36C47.79 35.91 46.26 36.36 45 37.35C43.74 36.45 42.21 35.91 40.59 36C38.16 36.18 35.91 37.98 35.1 40.5C34.11 43.47 35.28 46.71 38.25 49.14L43.92 53.64C44.28 53.91 44.64 54 45 54C45.36 54 45.81 53.91 46.08 53.64L51.75 49.14C54.72 46.71 55.89 43.56 54.9 40.5ZM49.59 46.35L45 49.95L40.5 46.35C38.79 44.91 38.07 43.2 38.52 41.67C38.88 40.59 39.87 39.69 40.77 39.69C40.86 39.69 40.86 39.69 40.95 39.69C41.94 39.69 42.93 40.23 43.56 41.04C43.92 41.49 44.46 41.76 45 41.76C45.54 41.76 46.17 41.49 46.44 41.04C47.07 40.23 47.97 39.69 49.05 39.69C49.14 39.69 49.14 39.69 49.23 39.69C50.22 39.78 51.12 40.59 51.48 41.67C52.02 43.2 51.3 44.91 49.59 46.35Z" fill="white"/>
</svg>
