<svg width="90" height="90" viewBox="0 0 90 90" fill="none" xmlns="http://www.w3.org/2000/svg">
<path d="M82.7143 47.1795C82.4433 45.7671 81.208 44.7458 79.7698 44.745H76.8733L76.6603 43.4685C76.4479 42.1864 75.4377 41.1847 74.1538 40.983C73.8689 40.938 73.5808 40.908 73.2973 40.869C73.7886 38.5758 73.3805 36.1815 72.1573 34.1805C72.8036 32.5042 72.683 30.6289 71.8273 29.0492C70.9717 27.4696 69.4669 26.344 67.7098 25.9695C66.5865 19.9575 61.3563 15.5873 55.2403 15.5505C55.0903 15.5505 54.9568 15.57 54.8143 15.5745C53.8371 14.0397 52.2259 13.0212 50.4204 12.7966C48.6148 12.572 46.8033 13.1649 45.4798 14.4135C43.8126 13.3298 41.8673 12.752 39.8788 12.75C36.6749 12.7631 33.6553 14.2502 31.6918 16.782C29.5116 16.1462 27.1606 16.5366 25.3029 17.8428C23.4451 19.149 22.2823 21.2293 22.1428 23.496C19.8528 24.4586 18.3628 26.6999 18.3613 29.184C18.366 29.6146 18.4163 30.0435 18.5113 30.4635C16.4862 33.5165 15.957 37.3239 17.0728 40.8135C16.6708 40.869 16.2598 40.9185 15.8728 40.9755C14.5823 41.1702 13.5632 42.1724 13.3468 43.4595L13.1338 44.7405H10.2298C8.79411 44.7415 7.56034 45.7595 7.28684 47.169L0.718336 80.892C0.461814 82.2127 0.809671 83.5789 1.66656 84.6161C2.52344 85.6533 3.79946 86.2527 5.14484 86.25H36.4258C37.6678 88.299 41.4418 89.25 44.9998 89.25C48.5203 89.25 52.2583 88.3215 53.5363 86.25H84.8549C86.1999 86.2526 87.4756 85.6534 88.3324 84.6166C89.1893 83.5797 89.5374 82.214 89.2813 80.8935L82.7143 47.1795ZM22.8973 31.899C21.6794 31.1667 21.0982 29.713 21.4755 28.3429C21.8528 26.9728 23.0962 26.0216 24.5173 26.016C25.5119 26.013 26.4479 26.4858 27.0358 27.288C27.3552 27.7183 27.8799 27.9455 28.4123 27.8841C28.9447 27.8227 29.4038 27.4819 29.6168 26.9901C29.8298 26.4983 29.7642 25.9303 29.4448 25.5C28.4263 24.1387 26.8827 23.2678 25.1908 23.1C25.6381 20.9993 27.4906 19.4954 29.6383 19.4895C29.8214 19.4988 30.0037 19.5188 30.1843 19.5495C30.0637 19.857 29.9585 20.1704 29.8693 20.4885C29.6827 21.2825 30.1647 22.0802 30.9544 22.2841C31.7442 22.4881 32.5522 22.0236 32.7733 21.2385C32.9439 20.5792 33.206 19.9471 33.5518 19.3605C34.8824 17.1314 37.2829 15.7616 39.8788 15.75C41.2917 15.7562 42.6722 16.1732 43.8523 16.95C43.6275 17.5816 43.5084 18.2461 43.4998 18.9165C43.4998 19.7449 44.1714 20.4165 44.9998 20.4165C45.8283 20.4165 46.4998 19.7449 46.4998 18.9165C46.4998 17.1739 47.9125 15.7612 49.6551 15.7612C51.3977 15.7612 52.8103 17.1739 52.8103 18.9165C52.8103 19.7449 53.4819 20.4165 54.3103 20.4165C55.1388 20.4165 55.8103 19.7449 55.8103 18.9165C55.8103 18.801 55.7818 18.6915 55.7758 18.576C60.0709 18.841 63.6825 21.894 64.6588 26.085C63.9591 26.2887 63.3017 26.6164 62.7178 27.0525C62.2891 27.374 62.0645 27.8999 62.1286 28.4319C62.1927 28.964 62.5358 29.4214 63.0286 29.6319C63.5214 29.8424 64.0891 29.774 64.5178 29.4525C65.7165 28.565 67.3723 28.6358 68.4909 29.6223C69.6094 30.6088 69.8866 32.2428 69.1558 33.543C68.8293 34.1171 68.3331 34.5761 67.7353 34.857C67.1085 35.1605 66.773 35.8556 66.9254 36.5352C67.0777 37.2148 67.6779 37.7002 68.3743 37.707C68.5943 37.7073 68.8116 37.6586 69.0103 37.5645C69.4079 37.3718 69.7835 37.137 70.1308 36.864C70.9062 39.0683 70.4199 41.52 68.8618 43.2615L68.8258 43.299C66.8717 45.4159 63.7544 45.988 61.1758 44.703C60.9233 44.5696 60.6807 44.4182 60.4498 44.25C61.5547 42.701 61.7073 40.6664 60.8458 38.97C60.6047 38.4912 60.1264 38.1774 59.5912 38.1468C59.0559 38.1162 58.545 38.3735 58.2509 38.8218C57.9568 39.2701 57.9242 39.8412 58.1653 40.32C58.6586 41.3114 58.3509 42.5145 57.4423 43.1475C56.9088 43.5027 56.2496 43.6151 55.6285 43.4566C55.0074 43.2982 54.4826 42.8839 54.1843 42.3165C53.9445 41.8371 53.4672 41.5221 52.9321 41.4901C52.3971 41.4581 51.8856 41.714 51.5904 42.1614C51.2952 42.6087 51.261 43.1796 51.5008 43.659C52.3805 45.4348 54.1931 46.5563 56.1748 46.551C56.82 46.5466 57.4586 46.4209 58.0573 46.1805C58.5931 46.6495 59.1833 47.0524 59.8153 47.3805C61.9532 48.4886 64.4391 48.7184 66.7438 48.021C65.2615 50.045 63.043 51.4053 60.5668 51.8085C59.7965 51.9339 59.251 52.6291 59.3125 53.4072C59.374 54.1852 60.0219 54.7861 60.8023 54.789C60.8822 54.789 60.9619 54.7829 61.0408 54.771C61.9542 54.6129 62.8469 54.3522 63.7018 53.994C64.1639 54.811 64.539 55.6742 64.8208 56.5695C64.8725 56.7258 64.8988 56.8894 64.8988 57.054C64.8985 57.7023 64.5113 58.2878 63.9148 58.542C63.2249 58.8089 62.4415 58.5983 61.9783 58.0215C60.8167 56.6573 59.2955 55.6465 57.5878 55.104C54.3463 54.018 53.0953 53.0475 52.5643 51.9915C53.3426 51.8944 54.1117 51.7338 54.8638 51.5115C55.3762 51.3539 55.7655 50.935 55.8852 50.4126C56.0049 49.8901 55.8368 49.3435 55.4442 48.9786C55.0516 48.6137 54.4942 48.4859 53.9818 48.6435C53.1402 48.9017 52.2713 49.0613 51.3928 49.119C49.7003 49.2513 48 48.9947 46.4218 48.369C45.8293 48.1379 45.1554 48.3056 44.7403 48.7875C42.5564 51.2962 38.8186 51.7226 36.1257 49.7702C33.4329 47.8178 32.676 44.1327 34.3813 41.277C34.6576 40.8158 34.6669 40.2424 34.4056 39.7725C34.1444 39.3027 33.6524 39.008 33.1149 38.9993C32.5774 38.9906 32.0761 39.2693 31.7998 39.7305C31.442 40.3396 31.1541 40.9872 30.9418 41.661C29.7606 41.5988 28.8292 40.6327 28.8103 39.45V39.4125C28.8096 39.0167 28.6507 38.6376 28.369 38.3596C28.0873 38.0815 27.7061 37.9276 27.3103 37.932C26.4783 37.9402 25.8087 38.6179 25.8103 39.45C25.817 42.1102 27.8231 44.3398 30.4678 44.6265C30.4732 45.1293 30.5189 45.6309 30.6043 46.1265C27.2552 46.8512 23.7814 45.6473 21.5989 43.0055C19.4164 40.3638 18.8897 36.7253 20.2333 33.573C20.5689 33.9125 20.9435 34.2111 21.3493 34.4625C22.0579 34.8776 22.9686 34.6457 23.3924 33.9423C23.8161 33.2388 23.5955 32.3254 22.8973 31.893V31.899ZM16.2973 43.9485C16.9888 43.8465 17.7028 43.7565 18.4123 43.6635C21.1857 48.0954 26.49 50.2474 31.5673 49.0005C32.9316 51.5897 35.4244 53.3954 38.31 53.8845C41.1955 54.3735 44.1441 53.4901 46.2853 51.495C47.3047 51.799 48.3546 51.9892 49.4158 52.062C50.1403 54.81 52.2343 56.475 56.6338 57.9495C57.8199 58.3213 58.8779 59.0182 59.6878 59.961C60.5883 61.0317 61.9128 61.654 63.3118 61.6635C63.9237 61.6633 64.5292 61.5398 65.0923 61.3005C66.7927 60.5738 67.8957 58.9031 67.8958 57.054C67.8972 56.5718 67.8202 56.0925 67.6678 55.635C67.3305 54.5751 66.8862 53.5524 66.3418 52.5825C68.8926 50.7488 70.6694 48.0314 71.3263 44.9595C71.6458 44.5799 71.9347 44.1757 72.1903 43.7505C72.6928 43.815 73.1953 43.872 73.7008 43.956L79.1158 76.527C68.5311 72.9925 57.0846 72.9925 46.4998 76.527V57.75C46.4998 56.9216 45.8283 56.25 44.9998 56.25C44.1714 56.25 43.4998 56.9216 43.4998 57.75V76.533C32.9163 72.9953 21.47 72.9911 10.8838 76.521L16.2973 43.9485ZM3.97634 82.698C3.6929 82.3556 3.57736 81.9045 3.66134 81.468L10.2298 47.745H12.6298L7.92284 76.0335C7.75728 77.0631 8.13641 78.1051 8.92494 78.7877C9.71346 79.4702 10.7991 79.696 11.7943 79.3845C19.7908 76.7938 28.31 76.2532 36.5698 77.8125L36.1228 83.25H5.14484C4.69231 83.2503 4.26349 83.0477 3.97634 82.698ZM44.9998 86.25C41.3863 86.25 39.3133 85.182 39.0088 84.7065L39.5248 78.4815C41.1742 78.8922 42.7883 79.4334 44.3518 80.1C44.5541 80.1974 44.7754 80.2487 44.9998 80.25C45.2249 80.2496 45.4469 80.1984 45.6493 80.1C47.2119 79.4295 48.8256 78.8847 50.4748 78.471L50.9908 84.705C50.6863 85.182 48.6133 86.25 44.9998 86.25ZM86.0233 82.698C85.7362 83.0477 85.3074 83.2503 84.8549 83.25H53.8813L53.4313 77.802C61.6957 76.2459 70.2186 76.7911 78.2173 79.3875C79.2124 79.6949 80.2956 79.4659 81.0811 78.7821C81.8666 78.0983 82.2427 77.0569 82.0753 76.029L77.3728 47.7465H79.7728L86.3428 81.4665C86.4261 81.9041 86.3088 82.356 86.0233 82.698Z" fill="white"/>
<path d="M40.0288 34.7775C39.4147 35.3331 39.3671 36.2811 39.9223 36.8955C41.1947 38.3004 42.8764 39.2701 44.7298 39.6675C43.8904 40.8503 42.5292 41.5522 41.0788 41.55C40.2503 41.55 39.5788 42.2216 39.5788 43.05C39.5788 43.8784 40.2503 44.55 41.0788 44.55C44.184 44.5624 46.9702 42.6445 48.0673 39.7395C51.7971 39.1214 54.75 36.2504 55.4728 32.5395C55.5845 32.0087 55.4009 31.459 54.9927 31.1018C54.5845 30.7446 54.0152 30.6356 53.504 30.8168C52.9927 30.9979 52.619 31.441 52.5268 31.9755C52.2327 33.5226 51.34 34.8912 50.0428 35.784C47.5472 37.4648 44.2001 37.0833 42.1468 34.884C41.5912 34.27 40.6431 34.2223 40.0288 34.7775Z" fill="white"/>
<path d="M34.7998 33.15C35.6282 33.15 36.2998 32.4784 36.2998 31.65C36.2998 30.6156 36.7107 29.6237 37.4421 28.8923C38.1735 28.1609 39.1655 27.75 40.1998 27.75C41.0282 27.75 41.6998 27.0784 41.6998 26.25C41.6998 25.4216 41.0282 24.75 40.1998 24.75C36.3908 24.7541 33.3039 27.8409 33.2998 31.65C33.2998 32.0478 33.4578 32.4293 33.7391 32.7106C34.0204 32.992 34.402 33.15 34.7998 33.15Z" fill="white"/>
<path d="M46.5 3.74998V2.24998C46.5 1.42156 45.8284 0.749985 45 0.749985C44.1716 0.749985 43.5 1.42156 43.5 2.24998V3.74998C43.5 4.57841 44.1716 5.24998 45 5.24998C45.8284 5.24998 46.5 4.57841 46.5 3.74998Z" fill="white"/>
<path d="M69.6147 11.514L68.1147 13.014C67.7248 13.3906 67.5684 13.9483 67.7057 14.4727C67.8429 14.9972 68.2525 15.4068 68.777 15.544C69.3014 15.6813 69.8591 15.5249 70.2357 15.135L71.7357 13.635C72.1257 13.2584 72.282 12.7007 72.1448 12.1762C72.0075 11.6518 71.5979 11.2422 71.0735 11.1049C70.549 10.9677 69.9913 11.1241 69.6147 11.514Z" fill="white"/>
<path d="M20.8241 15.5745C21.4307 15.5744 21.9775 15.2089 22.2096 14.6485C22.4418 14.088 22.3135 13.443 21.8846 13.014L20.3846 11.514C20.008 11.1241 19.4503 10.9677 18.9259 11.1049C18.4014 11.2422 17.9919 11.6518 17.8546 12.1762C17.7173 12.7007 17.8737 13.2584 18.2636 13.635L19.7636 15.135C20.0449 15.4163 20.4263 15.5744 20.8241 15.5745Z" fill="white"/>
<path d="M32.3713 9.26247C32.5684 9.26205 32.7635 9.22333 32.9458 9.14847C33.3135 8.99618 33.6055 8.70404 33.7577 8.33635C33.9099 7.96865 33.9098 7.55555 33.7573 7.18797L32.0338 3.02997C31.8364 2.52354 31.3804 2.16353 30.842 2.08898C30.3036 2.01442 29.7669 2.23697 29.4393 2.6707C29.1117 3.10443 29.0444 3.68146 29.2633 4.17897L30.9853 8.33697C31.2176 8.89736 31.7647 9.26263 32.3713 9.26247Z" fill="white"/>
<path d="M59.9249 2.21849C59.1599 1.90199 58.2831 2.2652 57.9659 3.02999L56.2424 7.18799C56.0895 7.55574 56.0891 7.96922 56.2413 8.33727C56.3936 8.70531 56.6859 8.99771 57.0539 9.14999C57.2362 9.22485 57.4314 9.26357 57.6284 9.26399C58.2351 9.26414 58.7821 8.89888 59.0144 8.33849L60.7364 4.18049C60.8894 3.81274 60.8898 3.39926 60.7375 3.03121C60.5853 2.66316 60.293 2.37077 59.9249 2.21849Z" fill="white"/>
<path d="M75.4871 27.123C75.6844 27.1226 75.8796 27.0834 76.0616 27.0075L80.2182 25.2855C80.7133 25.0805 81.0615 24.6269 81.1316 24.0956C81.2017 23.5643 80.9829 23.0359 80.5578 22.7096C80.1327 22.3833 79.5658 22.3085 79.0707 22.5135L74.9126 24.2355C74.2491 24.508 73.8714 25.2122 74.0114 25.9157C74.1514 26.6192 74.7698 27.1252 75.4871 27.123Z" fill="white"/>
<path d="M13.9377 27.0075C14.7032 27.3248 15.5809 26.9615 15.8982 26.196C16.2155 25.4305 15.8522 24.5528 15.0867 24.2355L10.9287 22.5135C10.1632 22.1966 9.28582 22.5603 8.96895 23.3257C8.65207 24.0912 9.01573 24.9686 9.7812 25.2855L13.9377 27.0075Z" fill="white"/>
</svg>
