<svg width="540" height="401" viewBox="0 0 540 401" fill="none" xmlns="http://www.w3.org/2000/svg">
<rect width="361.755" height="356.627" transform="matrix(-1 0 0 1 382.061 44.373)" fill="white"/>
<path d="M195.537 122.657C219.274 63.4982 165.016 59.4921 156.742 84.2217C140.468 115.457 147.52 129.099 158.852 133.337C156.131 145.264 148.912 172.211 156.222 181.872C165.359 193.948 171.421 199.72 177.312 183.976C182.025 171.381 185.799 145.227 187.097 133.724C190.648 134.859 197.307 134.236 195.537 122.657Z" fill="#FFFAE2"/>
<path d="M172.967 134.877C168.593 135.351 163.435 135.052 158.852 133.337M156.742 84.2217C165.016 59.4921 219.274 63.4982 195.537 122.657M156.742 84.2217C140.468 115.457 147.52 129.099 158.852 133.337M156.742 84.2217C156.742 84.2217 187.8 103.739 171.532 92.2352C155.264 80.7308 188.582 99.0007 188.582 99.0007L185.298 118.894C189.386 116.35 193.802 118.64 195.537 122.657M195.537 122.657C197.307 134.236 190.648 134.859 187.097 133.724C185.799 145.227 182.025 171.381 177.312 183.976C171.421 199.72 165.359 193.948 156.222 181.872C148.912 172.211 156.131 145.264 158.852 133.337" stroke="#232540" stroke-width="4" stroke-linecap="round" stroke-linejoin="round"/>
<path d="M195.814 123.092C220.155 67.9317 167.622 54.8989 156.169 84.222L188.296 98.6887L184.737 120.165C191.519 116.104 195.571 121.509 195.814 123.092Z" fill="#232540"/>
<rect x="24.8062" y="4.5" width="323.423" height="371.457" rx="23.5" stroke="white" stroke-width="9"/>
<path d="M229.387 396.891L215.238 329.51H145.905L163.734 396.891H229.387Z" fill="#232540"/>
<path d="M103.788 396.891L116.003 324.58H169.972V358.593L157.939 384.566L146.112 396.891H103.788Z" fill="#232540"/>
<path d="M159.443 374.705L155.306 350.875" stroke="#2A5EE8" stroke-width="4" stroke-linecap="round" stroke-linejoin="round"/>
<path d="M35.1039 175.579C30.194 168.744 19.3889 154.465 16.6707 146.184C16.6707 146.184 8.23911 127.019 10.0963 124.517C11.918 122.063 16.8396 134.216 20.4647 139.481C15.9166 132.835 11.3558 115.44 13.2904 114.57C16.5824 113.09 24.2739 131.699 27.8591 138.184C24.2328 131.467 15.4885 112.151 18.5715 107.716C19.9529 105.729 29.7954 124.819 33.1708 133.657C31.1587 128.199 28.0348 114.584 27.9859 111.779C27.8258 102.61 39.6946 127.153 42.8398 137.307L53.3715 171.755L35.1039 175.579Z" fill="#FFFAE2"/>
<path d="M35.1039 175.579C30.194 168.744 19.3889 154.465 16.6707 146.184C16.6707 146.184 8.23911 127.019 10.0963 124.517C11.9535 122.016 17.0327 134.696 20.6752 139.781C16.0589 133.375 11.3259 115.453 13.2904 114.57C16.5824 113.09 24.2739 131.699 27.8591 138.184C24.2328 131.467 15.4885 112.151 18.5715 107.716C19.9733 105.699 30.0874 125.386 33.3157 134.041C31.3127 128.869 28.036 114.652 27.9859 111.779C27.8258 102.61 39.6946 127.153 42.8398 137.307L53.3715 171.755L35.1039 175.579Z" stroke="#232540" stroke-width="4" stroke-linecap="round" stroke-linejoin="round"/>
<path d="M51.9227 145.406C52.5114 151.311 56.1755 162.769 58.6375 167.786L48.2644 162.55L37.8912 157.313C34.4883 153.505 40.7212 147.312 43.3321 144.271C44.8449 131.316 44.6154 125.098 47.4913 124.799C51.8717 124.343 51.0736 136.888 51.9227 145.406Z" fill="#FFFAE2"/>
<path d="M58.6293 167.786C56.1651 162.766 52.4979 151.301 51.9087 145.393C51.0588 136.87 51.8577 124.318 47.4734 124.774C44.5951 125.073 44.8248 131.294 43.3106 144.257C40.0075 144.201 37.512 152.799 40.9178 156.61" stroke="#232540" stroke-width="4" stroke-linecap="round" stroke-linejoin="round"/>
<path d="M160.986 148.149C145.386 142.744 108.823 148.655 87.3762 215.537L55.115 148.149L29.334 175.381C37.8159 204.937 60.9311 261.847 78.7429 266.711C96.5547 271.575 106.157 256.915 108.732 248.977L97.827 343.219L222.328 336.126L218.738 298.02C234.187 297.007 269.766 289.41 274.128 266.711C279.58 238.337 225.963 154.229 182.797 148.149H160.986Z" fill="#2A5EE8"/>
<path d="M190.879 141.903C190.879 141.903 186.866 160.335 184.415 163.758L154.652 160.711L152.886 139.943L190.879 141.903Z" fill="#2A5EE8"/>
<path d="M226.382 247.763C226.382 236.068 212.227 221.213 212.227 221.213L216.19 258.194C222.126 255.26 226.382 251.304 226.382 247.763Z" fill="#FFFAE2"/>
<path d="M183.632 267.36C183.632 267.36 202.522 264.949 216.19 258.194M216.19 258.194C222.126 255.26 226.382 251.304 226.382 247.763C226.382 236.068 212.227 221.213 212.227 221.213L216.19 258.194Z" stroke="#232540" stroke-width="4" stroke-linecap="round" stroke-linejoin="round"/>
<path d="M110.305 243.022C110.305 243.022 121.063 196.874 133.237 187.708" stroke="#232540" stroke-width="4" stroke-linecap="round" stroke-linejoin="round"/>
<path d="M162.951 107.024C142.916 102.382 139.492 102.55 161.551 114.276L162.951 107.024Z" fill="#FFFAE2"/>
<path d="M160.454 105.381C144.518 104.951 140.764 103.974 157.871 113.278" stroke="#232540" stroke-width="4" stroke-linecap="round" stroke-linejoin="round"/>
<path d="M157.853 113.516L155.784 119.84C157.305 121.972 161.344 124.925 165.334 119.683" stroke="#232540" stroke-width="4" stroke-linecap="round" stroke-linejoin="round"/>
<ellipse rx="1.53622" ry="3.90185" transform="matrix(-0.900674 -0.446971 -0.367475 0.925031 156.66 99.5896)" fill="#232540"/>
<ellipse rx="1.53622" ry="3.90185" transform="matrix(-0.900674 -0.446971 -0.367475 0.925031 169.455 105.149)" fill="#232540"/>
<path d="M199.065 274.932C221.497 286.339 182.712 288.329 173.088 289.286C164.922 290.098 117.841 279.645 118.213 277.347C118.824 273.582 136.776 278.258 139.706 276.586C133.059 275.204 113.03 270.131 112.786 267.022C112.542 263.914 133.854 269.93 139.238 269.458C129.043 265.697 109.321 258.562 112.157 254.952C113.557 253.169 134.912 261.322 145.732 263.305C136.171 258.205 114.624 253.899 117.527 250.796C119.482 248.707 144.282 253.87 155.139 257.901C151.203 254.291 149.157 248.82 148.112 244.623C147.645 242.75 149.87 241.686 151.209 243.064C159.238 251.334 178.003 268.734 199.065 274.932Z" fill="#FFFAE2" stroke="#232540" stroke-width="4" stroke-linecap="round" stroke-linejoin="round"/>
<path d="M162.399 312.56L204.866 303.189V256.614H169.76L162.399 312.56Z" fill="#2A5EE8"/>
<path d="M210.812 298.653C210.812 298.653 194.391 301.814 173.157 298.653" stroke="#232540" stroke-width="4" stroke-linecap="round" stroke-linejoin="round"/>
<path d="M372.043 202.965H197.268L175.502 323.81H348.978L372.043 202.965Z" fill="white"/>
<path d="M384.775 202.965H209.292L187.438 323.81H361.616L384.775 202.965Z" fill="#C9E7FC"/>
<path d="M290.307 323.758H257.967V386.209H283.265L290.307 323.758Z" fill="#C9E7FC"/>
<rect width="96.2674" height="9.03891" transform="matrix(-1 0 0 1 242.173 373.061)" fill="#C9E7FC"/>
<rect width="29.3315" height="16.4344" transform="matrix(-1 0 0 1 131.616 365.666)" fill="#C9E7FC"/>
<rect width="21.8106" height="16.4344" transform="matrix(-1 0 0 1 131.616 365.666)" fill="#C9E7FC"/>
<rect x="-5.13575" y="-5.13575" width="10.2715" height="462.04" transform="matrix(4.01489e-08 -1 -1 -4.759e-08 529.728 390.728)" fill="#C9E7FC" stroke="#C9E7FC" stroke-width="10.2715"/>
</svg>
