<svg width="90" height="90" viewBox="0 0 90 90" fill="none" xmlns="http://www.w3.org/2000/svg">
<g clip-path="url(#clip0)">
<path d="M22.8516 72.7734H1.75781C0.787148 72.7734 0 73.5606 0 74.5312V88.2422C0 89.2129 0.787148 90 1.75781 90H22.8516C23.8222 90 24.6094 89.2129 24.6094 88.2422V74.5312C24.6094 73.5606 23.8222 72.7734 22.8516 72.7734ZM21.0938 86.4844H3.51562V76.2891H21.0938V86.4844Z" fill="white"/>
<path d="M55.5469 66.7969H34.4531C33.4825 66.7969 32.6953 67.584 32.6953 68.5547V88.2422C32.6953 89.2129 33.4825 90 34.4531 90H55.5469C56.5175 90 57.3047 89.2129 57.3047 88.2422V68.5547C57.3047 67.584 56.5175 66.7969 55.5469 66.7969ZM53.7891 86.4844H36.2109V70.3125H53.7891V86.4844Z" fill="white"/>
<path d="M88.2423 61.1719H72.888C72.9843 60.9964 73.0728 60.8152 73.1524 60.6287C73.7848 59.1479 73.8028 57.5095 73.203 56.0153L67.5253 41.87C67.0278 40.6306 66.1181 39.5782 64.9643 38.9064L59.4168 35.6762C59.4191 35.6393 59.4225 35.6027 59.4225 35.5651V23.5447C66.3623 22.5016 72.6442 19.3238 77.6728 14.2954L77.792 14.1761C80.0035 11.9644 80.0035 8.36561 77.792 6.15428C76.7206 5.08272 75.2962 4.49262 73.781 4.49262C72.2659 4.49262 70.8414 5.08271 69.77 6.1541L69.6508 6.27328C66.1985 9.72563 61.7792 11.8591 57.0035 12.4226C57.61 11.3625 57.9585 10.137 57.9585 8.83055V7.25889C57.9585 3.25617 54.7022 0 50.6997 0C46.6971 0 43.4408 3.25617 43.4408 7.25889V8.83055C43.4408 10.199 43.8219 11.4801 44.4828 12.5738H44.232C35.4561 12.5738 27.2054 15.9913 20.9995 22.197L20.8803 22.3163C18.6688 24.528 18.6688 28.1268 20.8803 30.3383C23.092 32.5499 26.6907 32.5499 28.9024 30.3383L29.0216 30.2191C31.8821 27.3582 35.3866 25.403 39.25 24.4951V35.5653C39.25 35.9571 39.3799 36.318 39.5968 36.6103L34.4276 47.1053L21.5572 53.2121C20.1025 53.9026 19.0036 55.118 18.4629 56.6348C17.9222 58.1516 18.0049 59.788 18.695 61.2425C19.6878 63.3354 21.8267 64.6879 24.1442 64.6879C25.0417 64.6879 25.9103 64.4917 26.7255 64.1048L34.3448 60.4895C35.2218 60.0734 35.5955 59.0251 35.1792 58.1479C34.7631 57.2709 33.7151 56.8969 32.8376 57.3135L25.2184 60.9288C24.8777 61.0905 24.5165 61.1724 24.1444 61.1724C23.1776 61.1724 22.2855 60.6085 21.8713 59.7357C21.5836 59.1295 21.5493 58.4474 21.7745 57.8152C21.9998 57.183 22.4579 56.6764 23.0644 56.3887L36.4876 50.0194C36.8456 49.8496 37.1358 49.5636 37.3109 49.2082L43.1646 37.3236H55.2585L63.1956 41.9451C63.6765 42.2253 64.0557 42.6639 64.2629 43.1803L69.9407 57.3256C70.1906 57.9484 70.1833 58.6313 69.9196 59.2483C69.6559 59.8656 69.1679 60.3432 68.5448 60.5932C68.2446 60.7138 67.9297 60.775 67.6105 60.7751C66.578 60.7751 65.6622 60.1559 65.2775 59.1973L60.1463 46.4136C59.9777 45.9935 59.6538 45.655 59.2418 45.4678L50.4295 41.4661C49.6664 41.1196 48.7659 41.3597 48.2763 42.0393L43.9354 48.0653C43.368 48.8528 43.5466 49.9514 44.3344 50.519C45.1223 51.0864 46.2207 50.9078 46.7882 50.12L50.2873 45.2624L57.1464 48.3773L62.015 60.5065C62.6479 62.0833 63.8801 63.2769 65.3913 63.8713V88.2422C65.3913 89.2129 66.1784 90 67.1491 90H88.2429C89.2135 90 90.0007 89.2129 90.0007 88.2422V62.9297C90.0001 61.959 89.213 61.1719 88.2423 61.1719ZM46.9564 8.83055V7.25889C46.9564 5.19486 48.6356 3.51562 50.6997 3.51562C52.7637 3.51562 54.4429 5.19486 54.4429 7.25889V8.83055C54.4429 10.8946 52.7637 12.5738 50.6997 12.5738C48.6356 12.5738 46.9564 10.8947 46.9564 8.83055ZM42.7654 33.8073V22.3826C42.7654 21.8744 42.5455 21.3913 42.1627 21.0575C41.7796 20.7237 41.2716 20.572 40.7675 20.6413C35.3497 21.3877 30.4284 23.84 26.5353 27.7332L26.4162 27.8524C25.5754 28.6935 24.2069 28.6935 23.366 27.8524C22.5251 27.0116 22.5251 25.6433 23.366 24.8022L23.4852 24.683C29.0269 19.1415 36.3947 16.0894 44.2316 16.0894H54.4399C61.1249 16.0894 67.4096 13.4861 72.1364 8.75936L72.2555 8.64018C72.6628 8.23289 73.2044 8.00824 73.7806 8.00824C74.3568 8.00824 74.8982 8.23254 75.3057 8.64V8.64018C76.1466 9.48094 76.1466 10.8492 75.3057 11.6903L75.1865 11.8095C70.3578 16.6382 64.2368 19.5557 57.4853 20.2467C56.5885 20.3384 55.9067 21.0938 55.9067 21.9953V33.8073H42.7654ZM86.4845 86.4844H68.9064V64.6875H86.4845V86.4844Z" fill="white"/>
<path d="M41.982 56.7526C42.3088 56.4258 42.4953 55.9723 42.4953 55.51C42.4953 55.0477 42.3088 54.5941 41.982 54.2672C41.6533 53.9402 41.2016 53.7522 40.7393 53.7522C40.277 53.7522 39.8234 53.9401 39.4947 54.2672C39.1678 54.5941 38.9814 55.0477 38.9814 55.51C38.9814 55.9723 39.1678 56.4258 39.4947 56.7526C39.8234 57.0795 40.2752 57.2678 40.7393 57.2678C41.2016 57.2678 41.6533 57.0797 41.982 56.7526Z" fill="white"/>
</g>
<defs>
<clipPath id="clip0">
<rect width="90" height="90" fill="white"/>
</clipPath>
</defs>
</svg>
